<svg version="1.1" id="Layer_1" xmlns="http://www.w3.org/2000/svg" xmlns:xlink="http://www.w3.org/1999/xlink" x="0px" y="0px"
	 width="100%" viewBox="0 0 1927 1927" enable-background="new 0 0 1927 1927" xml:space="preserve">
<path fill="#FFFFFF" opacity="1.000000" stroke="none" 
	d="
M1079.000000,1928.000000 
	C719.333313,1928.000000 360.166656,1928.000000 1.000000,1928.000000 
	C1.000000,1285.666626 1.000000,643.333313 1.000000,1.000000 
	C643.333313,1.000000 1285.666626,1.000000 1928.000000,1.000000 
	C1928.000000,643.333313 1928.000000,1285.666626 1928.000000,1928.000000 
	C1645.166626,1928.000000 1362.333374,1928.000000 1079.000000,1928.000000 
M1480.953247,620.740967 
	C1481.141602,622.799011 1481.330078,624.856995 1481.718018,627.842102 
	C1481.761597,630.342834 1481.843140,632.843567 1481.843262,635.344299 
	C1481.849731,726.342651 1481.848755,817.340942 1481.848755,908.339294 
	C1481.848755,910.447632 1481.848633,912.555969 1481.848633,915.208130 
	C1566.458740,916.588989 1650.472900,917.960144 1734.706299,919.334839 
	C1734.706299,923.979248 1734.706299,928.355896 1734.706299,933.206970 
	C1650.304199,931.860779 1566.260376,930.520325 1482.131470,929.178528 
	C1482.131470,1052.724609 1482.131470,1175.642700 1482.131470,1299.030151 
	C1570.194702,1300.463867 1657.982056,1301.893066 1746.000000,1303.325928 
	C1746.000000,1300.130005 1746.000000,1297.974121 1746.000000,1295.818115 
	C1746.000000,1022.323120 1746.033447,748.828186 1745.915039,475.333221 
	C1745.908081,459.448669 1745.292358,443.506653 1743.816895,427.698090 
	C1742.567505,414.310852 1740.743774,400.790985 1737.302368,387.826691 
	C1721.989014,330.140106 1690.331421,283.064270 1642.666626,247.152176 
	C1608.642090,221.517059 1570.840088,204.220337 1528.135498,198.972824 
	C1515.734741,197.449020 1503.293457,195.346954 1490.853027,195.218140 
	C1445.858643,194.752258 1400.856689,195.013336 1355.857666,195.000061 
	C1354.402832,194.999634 1352.948120,195.000000 1351.249756,195.000000 
	C1351.249756,284.898621 1351.249756,374.319672 1351.249756,463.746552 
	C1358.149048,466.021606 1365.055176,467.923157 1371.676392,470.544312 
	C1410.265869,485.820465 1439.999146,511.481049 1460.285278,547.690247 
	C1472.819824,570.063477 1480.068359,594.148438 1480.953247,620.740967 
M336.004089,1723.508423 
	C343.644867,1726.806519 351.195099,1730.336548 358.943054,1733.360107 
	C383.948669,1743.117676 410.045013,1749.104736 436.715332,1749.706787 
	C483.346283,1750.759033 530.018066,1750.000000 576.672791,1750.000000 
	C578.293701,1750.000000 579.914551,1750.000000 582.000000,1750.000000 
	C582.000000,1747.589478 582.000000,1745.635864 582.000000,1743.682373 
	C582.000000,1685.362915 582.000000,1627.043335 582.000000,1568.723877 
	C582.000000,1541.063721 581.979004,1513.403687 582.046082,1485.743652 
	C582.050659,1483.848877 582.714111,1481.955566 583.075012,1480.041382 
	C576.874207,1478.148682 569.810608,1476.568359 563.197937,1473.879150 
	C525.610107,1458.592651 496.636505,1433.302979 476.702667,1397.917847 
	C463.510223,1374.499390 455.497070,1349.256470 455.347839,1322.375244 
	C454.855835,1233.732910 455.082245,1145.086304 455.032990,1056.441406 
	C455.032074,1054.820679 455.032837,1053.199951 455.032837,1051.447754 
	C366.773926,1049.937012 279.005310,1048.434692 191.032562,1046.928833 
	C191.032562,1049.102295 191.032578,1050.425903 191.032562,1051.749634 
	C191.030594,1197.712036 191.031219,1343.674438 191.023819,1489.636841 
	C191.022659,1512.401855 193.548935,1534.882568 199.638107,1556.819214 
	C220.527237,1632.073975 265.983093,1687.395630 336.004089,1723.508423 
M1657.500732,1315.880859 
	C1599.076538,1314.906616 1540.652344,1313.932495 1482.271606,1312.959106 
	C1481.794312,1316.875977 1481.385864,1320.134033 1481.002197,1323.395020 
	C1479.860474,1333.098633 1479.660767,1343.022949 1477.436035,1352.470947 
	C1466.034302,1400.892944 1438.645386,1437.772095 1395.783936,1463.059204 
	C1371.249146,1477.534058 1344.480835,1485.137207 1316.202759,1485.800659 
	C1280.890747,1486.629272 1245.544556,1485.999878 1210.213135,1486.000000 
	C1208.602661,1486.000000 1206.992310,1486.000000 1205.321533,1486.000000 
	C1205.321533,1574.266968 1205.321533,1661.987061 1205.321533,1750.000000 
	C1207.617554,1750.000000 1209.594238,1750.000000 1211.570923,1750.000000 
	C1300.567383,1750.000000 1389.563721,1750.032715 1478.560181,1749.955933 
	C1488.991699,1749.946899 1499.506226,1750.043457 1509.833740,1748.828247 
	C1523.978882,1747.163696 1538.251343,1745.327148 1551.998047,1741.752686 
	C1606.826416,1727.495972 1652.334595,1698.258911 1688.084473,1654.244385 
	C1725.708008,1607.922974 1745.215210,1554.722656 1745.863892,1495.100220 
	C1746.489380,1437.609375 1745.999756,1380.106445 1746.000000,1322.608765 
	C1746.000000,1320.854858 1746.000000,1319.100952 1746.000000,1317.491821 
	C1716.344482,1316.949463 1687.422363,1316.420532 1657.500732,1315.880859 
M975.000000,1169.500000 
	C975.000000,1203.115356 975.000000,1236.730713 975.000000,1270.527222 
	C970.119080,1270.527222 965.733215,1270.527222 960.953064,1270.527222 
	C960.953064,1206.964844 960.953064,1143.711914 960.953064,1080.250244 
	C858.505371,1080.250244 756.454834,1080.250244 654.000000,1080.250244 
	C654.000000,1082.288696 654.000000,1084.082520 654.000000,1085.876343 
	C654.000000,1113.539551 653.882019,1141.203735 654.079956,1168.865479 
	C654.131775,1176.115356 654.719299,1183.427490 655.832397,1190.591064 
	C658.770752,1209.501099 666.841736,1226.196899 679.444641,1240.510986 
	C701.145264,1265.157959 728.579163,1277.063599 761.451477,1277.037598 
	C900.933716,1276.927368 1040.416016,1276.973511 1179.898315,1276.908203 
	C1193.707520,1276.901733 1207.035889,1273.916504 1219.449707,1268.012085 
	C1260.838989,1248.327026 1281.702515,1215.031128 1281.879639,1169.517578 
	C1282.268188,1069.698242 1282.001099,969.876282 1281.991089,870.055420 
	C1281.990967,868.453369 1281.857056,866.851379 1281.789795,865.343872 
	C1179.317505,865.343872 1077.266846,865.343872 975.376831,865.343872 
	C975.376831,932.409180 975.376831,999.130066 975.376831,1066.152588 
	C1076.353638,1066.152588 1176.953979,1066.152588 1277.731201,1066.152588 
	C1277.731201,1070.851685 1277.731201,1075.244141 1277.731201,1080.114502 
	C1176.744873,1080.114502 1076.026367,1080.114502 975.000000,1080.114502 
	C975.000000,1109.896118 975.000000,1139.197998 975.000000,1169.500000 
M381.452637,622.016541 
	C405.964447,622.016541 430.476257,622.016541 454.572968,622.016541 
	C455.359100,616.215515 456.100830,610.174683 457.007599,604.158691 
	C459.679108,586.434814 464.924957,569.447021 473.088501,553.535095 
	C491.446259,517.753113 518.923950,491.220825 555.501892,474.375671 
	C559.184814,472.679596 560.087341,470.760132 560.082764,466.976288 
	C559.976013,378.161926 560.000000,289.347412 560.000000,200.532928 
	C560.000000,198.771667 560.000000,197.010391 560.000000,195.000000 
	C557.538452,195.000000 555.725647,194.986481 553.913025,195.002014 
	C515.324158,195.332703 476.732971,195.512573 438.148071,196.103088 
	C427.891144,196.260040 417.555115,197.050537 407.425415,198.636093 
	C376.294342,203.508896 347.148834,214.220413 319.912476,230.050827 
	C293.466705,245.421722 270.478851,264.956879 250.890915,288.412811 
	C232.808838,310.065491 218.797058,334.154266 208.479538,360.435822 
	C198.303787,386.356140 191.753036,413.299194 191.291046,440.966858 
	C190.328629,498.605225 190.998276,556.270874 191.008865,613.925293 
	C191.009155,615.533264 191.141235,617.141174 191.207336,618.645813 
	C197.688080,619.116394 203.766724,619.809814 209.858337,619.953552 
	C229.294296,620.412048 248.734863,620.680542 268.174072,620.995667 
	C289.775208,621.345764 311.375946,621.757324 332.978546,621.969788 
	C348.806122,622.125427 364.636414,622.002808 381.452637,622.016541 
M654.000000,802.500000 
	C654.000000,818.591675 654.000000,834.683350 654.000000,850.626282 
	C863.728149,850.626282 1072.785889,850.626282 1281.002075,850.626282 
	C1281.002075,815.649597 1280.846191,781.048584 1281.082397,746.450134 
	C1281.171021,733.462830 1278.243408,721.224792 1272.671021,709.784851 
	C1252.823486,669.037781 1219.768921,648.223267 1174.648560,648.117432 
	C1036.817871,647.794067 898.986023,647.981995 761.154724,648.058350 
	C754.891235,648.061829 748.562378,648.492004 742.376526,649.450012 
	C716.621277,653.438660 695.381470,665.718811 678.563477,685.503906 
	C663.758240,702.921082 655.444275,723.327759 654.204773,746.014404 
	C653.197083,764.458252 654.000000,783.001099 654.000000,802.500000 
M359.500031,1036.000000 
	C391.208069,1036.000000 422.916107,1036.000000 454.670593,1036.000000 
	C454.670593,903.493835 454.670593,770.447388 454.670593,637.220764 
	C366.681030,635.861328 279.018066,634.506897 191.301849,633.151733 
	C191.301849,766.621765 191.301849,899.677002 191.301849,1032.653320 
	C197.694489,1033.117065 203.774490,1033.809814 209.867447,1033.953491 
	C229.305756,1034.412109 248.748596,1034.684082 268.190216,1034.995117 
	C290.293915,1035.348633 312.397766,1035.697754 334.502380,1035.983398 
	C342.500305,1036.086792 350.500732,1036.000000 359.500031,1036.000000 
M854.764771,1486.018555 
	C854.176514,1487.806396 853.075439,1489.593872 853.073669,1491.382324 
	C852.989136,1575.712158 853.000000,1660.042114 853.000000,1744.372070 
	C853.000000,1746.141113 853.000000,1747.910278 853.000000,1749.648926 
	C965.993408,1749.648926 1078.379639,1749.648926 1190.600342,1749.648926 
	C1190.600342,1661.576904 1190.600342,1573.856567 1190.600342,1486.002441 
	C1078.707520,1486.002441 967.214478,1486.002441 854.764771,1486.018555 
M828.474609,1486.000000 
	C765.493713,1486.000000 702.512634,1486.093506 639.532166,1485.929443 
	C625.160095,1485.892090 610.790283,1484.965210 596.260559,1484.442017 
	C596.260559,1572.137085 596.260559,1660.860718 596.260559,1749.713257 
	C677.226624,1749.713257 757.931824,1749.713257 838.689331,1749.713257 
	C838.689331,1661.722412 838.689331,1574.018555 838.689331,1486.000000 
	C835.408875,1486.000000 832.435730,1486.000000 828.474609,1486.000000 
M816.161987,366.500000 
	C816.161987,309.429016 816.161987,252.358032 816.161987,195.300537 
	C735.086304,195.300537 654.696899,195.300537 574.271667,195.300537 
	C574.271667,285.970123 574.271667,376.338928 574.271667,466.125885 
	C586.171753,464.017181 597.834167,461.222687 609.657043,460.058258 
	C621.711731,458.871033 633.923828,459.058990 646.067627,459.039062 
	C700.721008,458.949493 755.374512,459.000000 810.028015,459.000000 
	C811.968628,459.000000 813.909241,459.000000 816.162048,459.000000 
	C816.162048,428.099457 816.162048,397.799744 816.161987,366.500000 
M836.500000,1066.000000 
	C877.909363,1066.000000 919.318787,1066.000000 960.676270,1066.000000 
	C960.676270,998.665100 960.676270,931.960754 960.676270,865.314941 
	C858.326294,865.314941 756.300354,865.314941 654.323608,865.314941 
	C654.323608,932.334778 654.323608,999.039185 654.323608,1066.000000 
	C714.931213,1066.000000 775.215576,1066.000000 836.500000,1066.000000 
M1337.000000,378.500000 
	C1337.000000,317.435089 1337.000000,256.370148 1337.000000,195.362976 
	C1261.970337,195.362976 1187.610596,195.362976 1113.383057,195.362976 
	C1113.383057,283.422089 1113.383057,371.117767 1113.383057,458.836578 
	C1188.058228,459.997772 1262.383179,457.508453 1337.000000,460.396820 
	C1337.000000,433.426788 1337.000000,406.463409 1337.000000,378.500000 
M942.500488,192.999664 
	C936.402649,192.999664 930.304749,192.999664 923.835693,192.999664 
	C923.835693,254.967728 923.835693,316.360962 923.835693,378.217163 
	C908.770935,378.217163 894.082886,378.217163 879.607300,378.217163 
	C909.470886,408.079224 939.200745,437.807556 968.000427,466.605713 
	C997.486938,437.152100 1027.204346,407.467804 1056.901245,377.804047 
	C1042.629395,377.804047 1027.899292,377.804047 1013.000244,377.804047 
	C1013.000244,346.745850 1013.000183,316.105103 1013.000183,285.464355 
	C1013.000183,254.711563 1013.000244,223.958771 1013.000244,192.999664 
	C989.445068,192.999664 966.472717,192.999664 942.500488,192.999664 
M1481.000244,1306.188232 
	C1481.075806,1307.145020 1481.151367,1308.101929 1481.227051,1309.058716 
	C1481.395264,1309.050659 1481.563477,1309.042603 1481.731689,1309.034546 
	C1481.731689,1306.361938 1481.731689,1303.689331 1481.731689,1301.016602 
	C1481.487793,1301.015625 1481.243896,1301.014526 1481.000000,1301.013550 
	C1481.000000,1302.471680 1481.000000,1303.929810 1481.000244,1306.188232 
z"/>
<path fill="#3A7CEC" opacity="1.000000" stroke="none" 
	d="
M1481.104004,619.929382 
	C1480.068359,594.148438 1472.819824,570.063477 1460.285278,547.690247 
	C1439.999146,511.481049 1410.265869,485.820465 1371.676392,470.544312 
	C1365.055176,467.923157 1358.149048,466.021606 1351.249756,463.746552 
	C1351.249756,374.319672 1351.249756,284.898621 1351.249756,195.000000 
	C1352.948120,195.000000 1354.402832,194.999634 1355.857666,195.000061 
	C1400.856689,195.013336 1445.858643,194.752258 1490.853027,195.218140 
	C1503.293457,195.346954 1515.734741,197.449020 1528.135498,198.972824 
	C1570.840088,204.220337 1608.642090,221.517059 1642.666626,247.152176 
	C1690.331421,283.064270 1721.989014,330.140106 1737.302368,387.826691 
	C1740.743774,400.790985 1742.567505,414.310852 1743.816895,427.698090 
	C1745.292358,443.506653 1745.908081,459.448669 1745.915039,475.333221 
	C1746.033447,748.828186 1746.000000,1022.323120 1746.000000,1295.818115 
	C1746.000000,1297.974121 1746.000000,1300.130005 1746.000000,1303.325928 
	C1657.982056,1301.893066 1570.194702,1300.463867 1482.131470,1299.030151 
	C1482.131470,1175.642700 1482.131470,1052.724609 1482.131470,929.178528 
	C1566.260376,930.520325 1650.304199,931.860779 1734.706299,933.206970 
	C1734.706299,928.355896 1734.706299,923.979248 1734.706299,919.334839 
	C1650.472900,917.960144 1566.458740,916.588989 1481.848633,915.208130 
	C1481.848633,912.555969 1481.848755,910.447632 1481.848755,908.339294 
	C1481.848755,817.340942 1481.849731,726.342651 1481.843262,635.344299 
	C1481.843140,632.843567 1481.761597,630.342834 1481.735840,626.992188 
	C1481.536987,624.071350 1481.320435,622.000366 1481.104004,619.929382 
z"/>
<path fill="#F1B500" opacity="1.000000" stroke="none" 
	d="
M335.670288,1723.339111 
	C265.983093,1687.395630 220.527237,1632.073975 199.638107,1556.819214 
	C193.548935,1534.882568 191.022659,1512.401855 191.023819,1489.636841 
	C191.031219,1343.674438 191.030594,1197.712036 191.032562,1051.749634 
	C191.032578,1050.425903 191.032562,1049.102295 191.032562,1046.928833 
	C279.005310,1048.434692 366.773926,1049.937012 455.032837,1051.447754 
	C455.032837,1053.199951 455.032074,1054.820679 455.032990,1056.441406 
	C455.082245,1145.086304 454.855835,1233.732910 455.347839,1322.375244 
	C455.497070,1349.256470 463.510223,1374.499390 476.702667,1397.917847 
	C496.636505,1433.302979 525.610107,1458.592651 563.197937,1473.879150 
	C569.810608,1476.568359 576.874207,1478.148682 583.075012,1480.041382 
	C582.714111,1481.955566 582.050659,1483.848877 582.046082,1485.743652 
	C581.979004,1513.403687 582.000000,1541.063721 582.000000,1568.723877 
	C582.000000,1627.043335 582.000000,1685.362915 582.000000,1743.682373 
	C582.000000,1745.635864 582.000000,1747.589478 582.000000,1750.000000 
	C579.914551,1750.000000 578.293701,1750.000000 576.672791,1750.000000 
	C530.018066,1750.000000 483.346283,1750.759033 436.715332,1749.706787 
	C410.045013,1749.104736 383.948669,1743.117676 358.943054,1733.360107 
	C351.195099,1730.336548 343.644867,1726.806519 335.670288,1723.339111 
z"/>
<path fill="#F1B500" opacity="1.000000" stroke="none" 
	d="
M1658.000488,1315.886230 
	C1687.422363,1316.420532 1716.344482,1316.949463 1746.000000,1317.491821 
	C1746.000000,1319.100952 1746.000000,1320.854858 1746.000000,1322.608765 
	C1745.999756,1380.106445 1746.489380,1437.609375 1745.863892,1495.100220 
	C1745.215210,1554.722656 1725.708008,1607.922974 1688.084473,1654.244385 
	C1652.334595,1698.258911 1606.826416,1727.495972 1551.998047,1741.752686 
	C1538.251343,1745.327148 1523.978882,1747.163696 1509.833740,1748.828247 
	C1499.506226,1750.043457 1488.991699,1749.946899 1478.560181,1749.955933 
	C1389.563721,1750.032715 1300.567383,1750.000000 1211.570923,1750.000000 
	C1209.594238,1750.000000 1207.617554,1750.000000 1205.321533,1750.000000 
	C1205.321533,1661.987061 1205.321533,1574.266968 1205.321533,1486.000000 
	C1206.992310,1486.000000 1208.602661,1486.000000 1210.213135,1486.000000 
	C1245.544556,1485.999878 1280.890747,1486.629272 1316.202759,1485.800659 
	C1344.480835,1485.137207 1371.249146,1477.534058 1395.783936,1463.059204 
	C1438.645386,1437.772095 1466.034302,1400.892944 1477.436035,1352.470947 
	C1479.660767,1343.022949 1479.860474,1333.098633 1481.002197,1323.395020 
	C1481.385864,1320.134033 1481.794312,1316.875977 1482.271606,1312.959106 
	C1540.652344,1313.932495 1599.076538,1314.906616 1658.000488,1315.886230 
z"/>
<path fill="#2CA24C" opacity="1.000000" stroke="none" 
	d="
M975.000000,1169.000000 
	C975.000000,1139.197998 975.000000,1109.896118 975.000000,1080.114502 
	C1076.026367,1080.114502 1176.744873,1080.114502 1277.731201,1080.114502 
	C1277.731201,1075.244141 1277.731201,1070.851685 1277.731201,1066.152588 
	C1176.953979,1066.152588 1076.353638,1066.152588 975.376831,1066.152588 
	C975.376831,999.130066 975.376831,932.409180 975.376831,865.343872 
	C1077.266846,865.343872 1179.317505,865.343872 1281.789795,865.343872 
	C1281.857056,866.851379 1281.990967,868.453369 1281.991089,870.055420 
	C1282.001099,969.876282 1282.268188,1069.698242 1281.879639,1169.517578 
	C1281.702515,1215.031128 1260.838989,1248.327026 1219.449707,1268.012085 
	C1207.035889,1273.916504 1193.707520,1276.901733 1179.898315,1276.908203 
	C1040.416016,1276.973511 900.933716,1276.927368 761.451477,1277.037598 
	C728.579163,1277.063599 701.145264,1265.157959 679.444641,1240.510986 
	C666.841736,1226.196899 658.770752,1209.501099 655.832397,1190.591064 
	C654.719299,1183.427490 654.131775,1176.115356 654.079956,1168.865479 
	C653.882019,1141.203735 654.000000,1113.539551 654.000000,1085.876343 
	C654.000000,1084.082520 654.000000,1082.288696 654.000000,1080.250244 
	C756.454834,1080.250244 858.505371,1080.250244 960.953064,1080.250244 
	C960.953064,1143.711914 960.953064,1206.964844 960.953064,1270.527222 
	C965.733215,1270.527222 970.119080,1270.527222 975.000000,1270.527222 
	C975.000000,1236.730713 975.000000,1203.115356 975.000000,1169.000000 
z"/>
<path fill="#E33E2B" opacity="1.000000" stroke="none" 
	d="
M380.959076,622.010376 
	C364.636414,622.002808 348.806122,622.125427 332.978546,621.969788 
	C311.375946,621.757324 289.775208,621.345764 268.174072,620.995667 
	C248.734863,620.680542 229.294296,620.412048 209.858337,619.953552 
	C203.766724,619.809814 197.688080,619.116394 191.207336,618.645813 
	C191.141235,617.141174 191.009155,615.533264 191.008865,613.925293 
	C190.998276,556.270874 190.328629,498.605225 191.291046,440.966858 
	C191.753036,413.299194 198.303787,386.356140 208.479538,360.435822 
	C218.797058,334.154266 232.808838,310.065491 250.890915,288.412811 
	C270.478851,264.956879 293.466705,245.421722 319.912476,230.050827 
	C347.148834,214.220413 376.294342,203.508896 407.425415,198.636093 
	C417.555115,197.050537 427.891144,196.260040 438.148071,196.103088 
	C476.732971,195.512573 515.324158,195.332703 553.913025,195.002014 
	C555.725647,194.986481 557.538452,195.000000 560.000000,195.000000 
	C560.000000,197.010391 560.000000,198.771667 560.000000,200.532928 
	C560.000000,289.347412 559.976013,378.161926 560.082764,466.976288 
	C560.087341,470.760132 559.184814,472.679596 555.501892,474.375671 
	C518.923950,491.220825 491.446259,517.753113 473.088501,553.535095 
	C464.924957,569.447021 459.679108,586.434814 457.007599,604.158691 
	C456.100830,610.174683 455.359100,616.215515 454.572968,622.016541 
	C430.476257,622.016541 405.964447,622.016541 380.959076,622.010376 
z"/>
<path fill="#2CA24C" opacity="1.000000" stroke="none" 
	d="
M654.000000,802.000000 
	C654.000000,783.001099 653.197083,764.458252 654.204773,746.014404 
	C655.444275,723.327759 663.758240,702.921082 678.563477,685.503906 
	C695.381470,665.718811 716.621277,653.438660 742.376526,649.450012 
	C748.562378,648.492004 754.891235,648.061829 761.154724,648.058350 
	C898.986023,647.981995 1036.817871,647.794067 1174.648560,648.117432 
	C1219.768921,648.223267 1252.823486,669.037781 1272.671021,709.784851 
	C1278.243408,721.224792 1281.171021,733.462830 1281.082397,746.450134 
	C1280.846191,781.048584 1281.002075,815.649597 1281.002075,850.626282 
	C1072.785889,850.626282 863.728149,850.626282 654.000000,850.626282 
	C654.000000,834.683350 654.000000,818.591675 654.000000,802.000000 
z"/>
<path fill="#E33E2B" opacity="1.000000" stroke="none" 
	d="
M359.000000,1036.000000 
	C350.500732,1036.000000 342.500305,1036.086792 334.502380,1035.983398 
	C312.397766,1035.697754 290.293915,1035.348633 268.190216,1034.995117 
	C248.748596,1034.684082 229.305756,1034.412109 209.867447,1033.953491 
	C203.774490,1033.809814 197.694489,1033.117065 191.301849,1032.653320 
	C191.301849,899.677002 191.301849,766.621765 191.301849,633.151733 
	C279.018066,634.506897 366.681030,635.861328 454.670593,637.220764 
	C454.670593,770.447388 454.670593,903.493835 454.670593,1036.000000 
	C422.916107,1036.000000 391.208069,1036.000000 359.000000,1036.000000 
z"/>
<path fill="#F1B500" opacity="1.000000" stroke="none" 
	d="
M855.243042,1486.010498 
	C967.214478,1486.002441 1078.707520,1486.002441 1190.600342,1486.002441 
	C1190.600342,1573.856567 1190.600342,1661.576904 1190.600342,1749.648926 
	C1078.379639,1749.648926 965.993408,1749.648926 853.000000,1749.648926 
	C853.000000,1747.910278 853.000000,1746.141113 853.000000,1744.372070 
	C853.000000,1660.042114 852.989136,1575.712158 853.073669,1491.382324 
	C853.075439,1489.593872 854.176514,1487.806396 855.243042,1486.010498 
z"/>
<path fill="#F1B500" opacity="1.000000" stroke="none" 
	d="
M828.968628,1486.000000 
	C832.435730,1486.000000 835.408875,1486.000000 838.689331,1486.000000 
	C838.689331,1574.018555 838.689331,1661.722412 838.689331,1749.713257 
	C757.931824,1749.713257 677.226624,1749.713257 596.260559,1749.713257 
	C596.260559,1660.860718 596.260559,1572.137085 596.260559,1484.442017 
	C610.790283,1484.965210 625.160095,1485.892090 639.532166,1485.929443 
	C702.512634,1486.093506 765.493713,1486.000000 828.968628,1486.000000 
z"/>
<path fill="#E33E2B" opacity="1.000000" stroke="none" 
	d="
M816.161987,367.000000 
	C816.162048,397.799744 816.162048,428.099457 816.162048,459.000000 
	C813.909241,459.000000 811.968628,459.000000 810.028015,459.000000 
	C755.374512,459.000000 700.721008,458.949493 646.067627,459.039062 
	C633.923828,459.058990 621.711731,458.871033 609.657043,460.058258 
	C597.834167,461.222687 586.171753,464.017181 574.271667,466.125885 
	C574.271667,376.338928 574.271667,285.970123 574.271667,195.300537 
	C654.696899,195.300537 735.086304,195.300537 816.161987,195.300537 
	C816.161987,252.358032 816.161987,309.429016 816.161987,367.000000 
z"/>
<path fill="#2CA24C" opacity="1.000000" stroke="none" 
	d="
M836.000000,1066.000000 
	C775.215576,1066.000000 714.931213,1066.000000 654.323608,1066.000000 
	C654.323608,999.039185 654.323608,932.334778 654.323608,865.314941 
	C756.300354,865.314941 858.326294,865.314941 960.676270,865.314941 
	C960.676270,931.960754 960.676270,998.665100 960.676270,1066.000000 
	C919.318787,1066.000000 877.909363,1066.000000 836.000000,1066.000000 
z"/>
<path fill="#3A7CEC" opacity="1.000000" stroke="none" 
	d="
M1337.000000,379.000000 
	C1337.000000,406.463409 1337.000000,433.426788 1337.000000,460.396820 
	C1262.383179,457.508453 1188.058228,459.997772 1113.383057,458.836578 
	C1113.383057,371.117767 1113.383057,283.422089 1113.383057,195.362976 
	C1187.610596,195.362976 1261.970337,195.362976 1337.000000,195.362976 
	C1337.000000,256.370148 1337.000000,317.435089 1337.000000,379.000000 
z"/>
<path fill="#000000" opacity="1.000000" stroke="none" 
	d="
M943.000427,192.999664 
	C966.472717,192.999664 989.445068,192.999664 1013.000244,192.999664 
	C1013.000244,223.958771 1013.000183,254.711563 1013.000183,285.464355 
	C1013.000183,316.105103 1013.000244,346.745850 1013.000244,377.804047 
	C1027.899292,377.804047 1042.629395,377.804047 1056.901245,377.804047 
	C1027.204346,407.467804 997.486938,437.152100 968.000427,466.605713 
	C939.200745,437.807556 909.470886,408.079224 879.607300,378.217163 
	C894.082886,378.217163 908.770935,378.217163 923.835693,378.217163 
	C923.835693,316.360962 923.835693,254.967728 923.835693,192.999664 
	C930.304749,192.999664 936.402649,192.999664 943.000427,192.999664 
z"/>
<path fill="#CDDEFA" opacity="1.000000" stroke="none" 
	d="
M1481.000122,1305.788086 
	C1481.000000,1303.929810 1481.000000,1302.471680 1481.000000,1301.013550 
	C1481.243896,1301.014526 1481.487793,1301.015625 1481.731689,1301.016602 
	C1481.731689,1303.689331 1481.731689,1306.361938 1481.731689,1309.034546 
	C1481.563477,1309.042603 1481.395264,1309.050659 1481.227051,1309.058716 
	C1481.151367,1308.101929 1481.075806,1307.145020 1481.000122,1305.788086 
z"/>
<path fill="#CCDDF9" opacity="1.000000" stroke="none" 
	d="
M1481.028564,620.335205 
	C1481.320435,622.000366 1481.536987,624.071350 1481.635986,626.528687 
	C1481.330078,624.856995 1481.141602,622.799011 1481.028564,620.335205 
z"/>
</svg>